<?xml version="1.0" encoding="UTF-8"?><svg id="Layer_2" xmlns="http://www.w3.org/2000/svg" xmlns:xlink="http://www.w3.org/1999/xlink" viewBox="0 0 1462.48 819.49"><defs><style>.cls-1{clip-path:url(#clippath-1);}.cls-2{fill:#00ff1e;}.cls-3{clip-path:url(#clippath);}.cls-4{fill:none;}.cls-5{fill:url(#linear-gradient);}</style><clipPath id="clippath"><path class="cls-4" d="m190.81,437.83l921.31.07c-29.07,215.63-213.2,381.58-436.09,381.58l-485.26-.06C85.41,819.41,0,733.99,0,628.63h0c0-105.38,85.43-190.81,190.81-190.8Z"/></clipPath><linearGradient id="linear-gradient" x1="5553.35" y1="5271.99" x2="7216" y2="3649.43" gradientTransform="translate(-5631.56 -4008.99)" gradientUnits="userSpaceOnUse"><stop offset="0" stop-color="#00ff1e"/><stop offset="1" stop-color="#6800d0"/></linearGradient><clipPath id="clippath-1"><path class="cls-4" d="m1271.67,381.66l-921.31-.07C379.43,165.96,563.56,0,786.45,0l485.26.06c105.36.01,190.77,85.43,190.77,190.8h0c0,105.38-85.43,190.81-190.81,190.8Z"/></clipPath></defs><g id="Layer_7"><g class="cls-3"><rect class="cls-5" x=".46" y="-245" width="1465.79" height="1432" transform="translate(1466.71 941.99) rotate(180)"/><path class="cls-2" d="m1271.67,381.66l-921.31-.07C379.43,165.96,563.56,0,786.45,0l485.26.06c105.36.01,190.77,85.43,190.77,190.8h0c0,105.38-85.43,190.81-190.81,190.8Z"/></g><g class="cls-1"><rect class="cls-5" x=".46" y="-245" width="1465.79" height="1432" transform="translate(1466.71 941.99) rotate(180)"/></g></g></svg>